<mxfile host="app.diagrams.net" modified="2024-01-03T20:48:08.354Z" agent="Mozilla/5.0 (Windows NT 10.0; Win64; x64) AppleWebKit/537.36 (KHTML, like Gecko) Chrome/120.0.0.0 Safari/537.36" etag="XzCO88t82YOUOGTviDnU" version="22.1.16" type="device">
  <diagram name="Страница — 1" id="p4rVj08rZcKLubkCu5YB">
    <mxGraphModel dx="1687" dy="868" grid="1" gridSize="10" guides="1" tooltips="1" connect="1" arrows="1" fold="1" page="1" pageScale="1" pageWidth="827" pageHeight="1169" math="0" shadow="0">
      <root>
        <mxCell id="0" />
        <mxCell id="1" parent="0" />
        <mxCell id="iTd5vwI9E0nDES0AS1c3-5" style="edgeStyle=orthogonalEdgeStyle;rounded=0;orthogonalLoop=1;jettySize=auto;html=1;exitX=0.5;exitY=1;exitDx=0;exitDy=0;entryX=0;entryY=0.5;entryDx=0;entryDy=0;strokeColor=#0B4D6A;" edge="1" parent="1" source="iTd5vwI9E0nDES0AS1c3-1" target="iTd5vwI9E0nDES0AS1c3-4">
          <mxGeometry relative="1" as="geometry" />
        </mxCell>
        <mxCell id="iTd5vwI9E0nDES0AS1c3-1" value="&lt;font style=&quot;font-size: 14px;&quot;&gt;Создать занятие&lt;/font&gt;" style="rounded=1;whiteSpace=wrap;html=1;labelBackgroundColor=none;fillColor=#09555B;strokeColor=#BAC8D3;fontColor=#EEEEEE;" vertex="1" parent="1">
          <mxGeometry x="120" y="120" width="160" height="40" as="geometry" />
        </mxCell>
        <mxCell id="iTd5vwI9E0nDES0AS1c3-4" value="" style="rounded=1;whiteSpace=wrap;html=1;strokeColor=#BAC8D3;fontColor=#EEEEEE;fillColor=#09555B;" vertex="1" parent="1">
          <mxGeometry x="229" y="200" width="370" height="350" as="geometry" />
        </mxCell>
        <mxCell id="iTd5vwI9E0nDES0AS1c3-6" value="&lt;font style=&quot;font-size: 15px;&quot;&gt;Название занятия&lt;/font&gt;" style="rounded=1;whiteSpace=wrap;html=1;" vertex="1" parent="1">
          <mxGeometry x="279" y="270" width="270" height="30" as="geometry" />
        </mxCell>
        <mxCell id="iTd5vwI9E0nDES0AS1c3-8" value="&lt;font style=&quot;font-size: 15px;&quot;&gt;Предмет&lt;/font&gt;" style="rounded=1;whiteSpace=wrap;html=1;" vertex="1" parent="1">
          <mxGeometry x="279" y="320" width="270" height="30" as="geometry" />
        </mxCell>
        <mxCell id="iTd5vwI9E0nDES0AS1c3-9" value="&lt;font style=&quot;font-size: 15px;&quot;&gt;Кол-во посетивших&lt;/font&gt;" style="rounded=1;whiteSpace=wrap;html=1;" vertex="1" parent="1">
          <mxGeometry x="279" y="370" width="270" height="30" as="geometry" />
        </mxCell>
        <mxCell id="iTd5vwI9E0nDES0AS1c3-10" value="&lt;font style=&quot;font-size: 15px;&quot;&gt;Подтвердить&lt;/font&gt;" style="rounded=1;whiteSpace=wrap;html=1;" vertex="1" parent="1">
          <mxGeometry x="324" y="490" width="180" height="30" as="geometry" />
        </mxCell>
        <mxCell id="iTd5vwI9E0nDES0AS1c3-11" value="&lt;font style=&quot;font-size: 18px;&quot;&gt;Создание занятия&lt;/font&gt;" style="text;html=1;strokeColor=none;fillColor=none;align=center;verticalAlign=middle;whiteSpace=wrap;rounded=0;fontColor=#EEEEEE;" vertex="1" parent="1">
          <mxGeometry x="316" y="220" width="196" height="30" as="geometry" />
        </mxCell>
        <mxCell id="iTd5vwI9E0nDES0AS1c3-17" value="&lt;font style=&quot;font-size: 18px;&quot;&gt;Удаление занятия&lt;/font&gt;" style="text;html=1;strokeColor=none;fillColor=none;align=center;verticalAlign=middle;whiteSpace=wrap;rounded=0;fontColor=#EEEEEE;" vertex="1" parent="1">
          <mxGeometry x="777" y="220" width="196" height="30" as="geometry" />
        </mxCell>
        <mxCell id="iTd5vwI9E0nDES0AS1c3-21" value="" style="rounded=1;whiteSpace=wrap;html=1;strokeColor=#BAC8D3;fontColor=#EEEEEE;fillColor=#09555B;" vertex="1" parent="1">
          <mxGeometry x="229" y="610" width="651" height="520" as="geometry" />
        </mxCell>
        <mxCell id="iTd5vwI9E0nDES0AS1c3-22" value="&lt;font style=&quot;font-size: 18px;&quot;&gt;Список занятий&lt;/font&gt;" style="text;html=1;strokeColor=none;fillColor=none;align=center;verticalAlign=middle;whiteSpace=wrap;rounded=0;fontColor=#EEEEEE;" vertex="1" parent="1">
          <mxGeometry x="456.5" y="630" width="196" height="30" as="geometry" />
        </mxCell>
        <mxCell id="iTd5vwI9E0nDES0AS1c3-24" value="&lt;font style=&quot;font-size: 15px;&quot;&gt;Занятие №1&lt;/font&gt;" style="rounded=1;whiteSpace=wrap;html=1;" vertex="1" parent="1">
          <mxGeometry x="279" y="680" width="131" height="30" as="geometry" />
        </mxCell>
        <mxCell id="iTd5vwI9E0nDES0AS1c3-25" value="&lt;font style=&quot;font-size: 15px;&quot;&gt;Подробнее&lt;/font&gt;" style="rounded=1;whiteSpace=wrap;html=1;" vertex="1" parent="1">
          <mxGeometry x="590" y="680" width="110" height="30" as="geometry" />
        </mxCell>
        <mxCell id="iTd5vwI9E0nDES0AS1c3-26" value="&lt;font style=&quot;font-size: 15px;&quot;&gt;Занятие №2&lt;/font&gt;" style="rounded=1;whiteSpace=wrap;html=1;" vertex="1" parent="1">
          <mxGeometry x="279" y="730" width="191" height="30" as="geometry" />
        </mxCell>
        <mxCell id="iTd5vwI9E0nDES0AS1c3-37" style="edgeStyle=orthogonalEdgeStyle;rounded=0;orthogonalLoop=1;jettySize=auto;html=1;exitX=1;exitY=0.5;exitDx=0;exitDy=0;strokeColor=#0B4D6A;" edge="1" parent="1" source="iTd5vwI9E0nDES0AS1c3-27" target="iTd5vwI9E0nDES0AS1c3-36">
          <mxGeometry relative="1" as="geometry" />
        </mxCell>
        <mxCell id="iTd5vwI9E0nDES0AS1c3-27" value="&lt;font style=&quot;font-size: 15px;&quot;&gt;Подробнее&lt;/font&gt;" style="rounded=1;whiteSpace=wrap;html=1;" vertex="1" parent="1">
          <mxGeometry x="670" y="730" width="157" height="30" as="geometry" />
        </mxCell>
        <mxCell id="iTd5vwI9E0nDES0AS1c3-28" value="&lt;font style=&quot;font-size: 15px;&quot;&gt;Занятие №3&lt;/font&gt;" style="rounded=1;whiteSpace=wrap;html=1;" vertex="1" parent="1">
          <mxGeometry x="279" y="790" width="191" height="30" as="geometry" />
        </mxCell>
        <mxCell id="iTd5vwI9E0nDES0AS1c3-29" value="&lt;font style=&quot;font-size: 15px;&quot;&gt;Подробнее&lt;/font&gt;" style="rounded=1;whiteSpace=wrap;html=1;" vertex="1" parent="1">
          <mxGeometry x="670" y="790" width="157" height="30" as="geometry" />
        </mxCell>
        <mxCell id="iTd5vwI9E0nDES0AS1c3-30" value="&lt;font style=&quot;font-size: 15px;&quot;&gt;Занятие №4&lt;/font&gt;" style="rounded=1;whiteSpace=wrap;html=1;" vertex="1" parent="1">
          <mxGeometry x="280" y="850" width="191" height="30" as="geometry" />
        </mxCell>
        <mxCell id="iTd5vwI9E0nDES0AS1c3-31" value="&lt;font style=&quot;font-size: 15px;&quot;&gt;Подробнее&lt;/font&gt;" style="rounded=1;whiteSpace=wrap;html=1;" vertex="1" parent="1">
          <mxGeometry x="670" y="850" width="157" height="30" as="geometry" />
        </mxCell>
        <mxCell id="iTd5vwI9E0nDES0AS1c3-34" value="&lt;span style=&quot;font-size: 18px;&quot;&gt;Название занятия&lt;/span&gt;" style="text;html=1;strokeColor=none;fillColor=none;align=center;verticalAlign=middle;whiteSpace=wrap;rounded=0;fontColor=#EEEEEE;" vertex="1" parent="1">
          <mxGeometry x="1227.5" y="620" width="196" height="30" as="geometry" />
        </mxCell>
        <mxCell id="iTd5vwI9E0nDES0AS1c3-35" value="&lt;span style=&quot;font-size: 18px;&quot;&gt;Назва&lt;/span&gt;" style="text;html=1;strokeColor=none;fillColor=none;align=center;verticalAlign=middle;whiteSpace=wrap;rounded=0;fontColor=#EEEEEE;" vertex="1" parent="1">
          <mxGeometry x="1044" y="710" width="196" height="30" as="geometry" />
        </mxCell>
        <mxCell id="iTd5vwI9E0nDES0AS1c3-36" value="" style="rounded=1;whiteSpace=wrap;html=1;strokeColor=#BAC8D3;fontColor=#EEEEEE;fillColor=#09555B;" vertex="1" parent="1">
          <mxGeometry x="1020" y="650" width="370" height="350" as="geometry" />
        </mxCell>
        <mxCell id="iTd5vwI9E0nDES0AS1c3-38" value="&lt;font style=&quot;font-size: 18px;&quot;&gt;Название занятия&lt;/font&gt;" style="text;html=1;strokeColor=none;fillColor=none;align=center;verticalAlign=middle;whiteSpace=wrap;rounded=0;fontColor=#EEEEEE;" vertex="1" parent="1">
          <mxGeometry x="1107" y="670" width="196" height="30" as="geometry" />
        </mxCell>
        <mxCell id="iTd5vwI9E0nDES0AS1c3-39" value="&lt;font style=&quot;font-size: 15px;&quot;&gt;Название&lt;/font&gt;" style="rounded=1;whiteSpace=wrap;html=1;" vertex="1" parent="1">
          <mxGeometry x="1070" y="740" width="270" height="30" as="geometry" />
        </mxCell>
        <mxCell id="iTd5vwI9E0nDES0AS1c3-40" value="&lt;font style=&quot;font-size: 15px;&quot;&gt;Тема&lt;/font&gt;" style="rounded=1;whiteSpace=wrap;html=1;" vertex="1" parent="1">
          <mxGeometry x="1070" y="790" width="270" height="30" as="geometry" />
        </mxCell>
        <mxCell id="iTd5vwI9E0nDES0AS1c3-41" value="&lt;font style=&quot;font-size: 15px;&quot;&gt;Преподаватель&lt;/font&gt;" style="rounded=1;whiteSpace=wrap;html=1;" vertex="1" parent="1">
          <mxGeometry x="1070" y="840" width="270" height="30" as="geometry" />
        </mxCell>
        <mxCell id="iTd5vwI9E0nDES0AS1c3-42" value="&lt;font style=&quot;font-size: 15px;&quot;&gt;Закрыть&lt;/font&gt;" style="rounded=1;whiteSpace=wrap;html=1;" vertex="1" parent="1">
          <mxGeometry x="1105" y="940" width="200" height="30" as="geometry" />
        </mxCell>
        <mxCell id="iTd5vwI9E0nDES0AS1c3-49" style="edgeStyle=orthogonalEdgeStyle;rounded=0;orthogonalLoop=1;jettySize=auto;html=1;exitX=0.5;exitY=1;exitDx=0;exitDy=0;entryX=0;entryY=0.5;entryDx=0;entryDy=0;strokeColor=#0B4D6A;" edge="1" parent="1" source="iTd5vwI9E0nDES0AS1c3-43" target="iTd5vwI9E0nDES0AS1c3-44">
          <mxGeometry relative="1" as="geometry" />
        </mxCell>
        <mxCell id="iTd5vwI9E0nDES0AS1c3-43" value="&lt;font style=&quot;font-size: 14px;&quot;&gt;Отчетность&lt;/font&gt;" style="rounded=1;whiteSpace=wrap;html=1;labelBackgroundColor=none;fillColor=#09555B;strokeColor=#BAC8D3;fontColor=#EEEEEE;" vertex="1" parent="1">
          <mxGeometry x="660" y="110" width="160" height="40" as="geometry" />
        </mxCell>
        <mxCell id="iTd5vwI9E0nDES0AS1c3-44" value="" style="rounded=1;whiteSpace=wrap;html=1;strokeColor=#BAC8D3;fontColor=#EEEEEE;fillColor=#09555B;" vertex="1" parent="1">
          <mxGeometry x="710" y="200" width="370" height="350" as="geometry" />
        </mxCell>
        <mxCell id="iTd5vwI9E0nDES0AS1c3-45" value="&lt;font style=&quot;font-size: 18px;&quot;&gt;Отчетность&lt;br&gt;&lt;/font&gt;" style="text;html=1;strokeColor=none;fillColor=none;align=center;verticalAlign=middle;whiteSpace=wrap;rounded=0;fontColor=#EEEEEE;" vertex="1" parent="1">
          <mxGeometry x="797" y="220" width="196" height="30" as="geometry" />
        </mxCell>
        <mxCell id="iTd5vwI9E0nDES0AS1c3-46" value="&lt;font style=&quot;font-size: 15px;&quot;&gt;Наиболее посещаемое занятие&lt;/font&gt;" style="rounded=1;whiteSpace=wrap;html=1;" vertex="1" parent="1">
          <mxGeometry x="760" y="280" width="270" height="30" as="geometry" />
        </mxCell>
        <mxCell id="iTd5vwI9E0nDES0AS1c3-47" value="&lt;span style=&quot;font-size: 15px;&quot;&gt;Наименее посещаемое занятие&lt;/span&gt;" style="rounded=1;whiteSpace=wrap;html=1;" vertex="1" parent="1">
          <mxGeometry x="760" y="380" width="270" height="30" as="geometry" />
        </mxCell>
        <mxCell id="iTd5vwI9E0nDES0AS1c3-48" value="&lt;font style=&quot;font-size: 15px;&quot;&gt;Закрыть&lt;/font&gt;" style="rounded=1;whiteSpace=wrap;html=1;" vertex="1" parent="1">
          <mxGeometry x="795" y="490" width="200" height="30" as="geometry" />
        </mxCell>
        <mxCell id="iTd5vwI9E0nDES0AS1c3-50" value="&lt;font style=&quot;font-size: 15px;&quot;&gt;Редактировать&lt;/font&gt;" style="rounded=1;whiteSpace=wrap;html=1;" vertex="1" parent="1">
          <mxGeometry x="450" y="680" width="114.5" height="30" as="geometry" />
        </mxCell>
        <mxCell id="iTd5vwI9E0nDES0AS1c3-51" value="&lt;font style=&quot;font-size: 15px;&quot;&gt;Редактировать&lt;/font&gt;" style="rounded=1;whiteSpace=wrap;html=1;" vertex="1" parent="1">
          <mxGeometry x="495.5" y="730" width="157" height="30" as="geometry" />
        </mxCell>
        <mxCell id="iTd5vwI9E0nDES0AS1c3-52" value="&lt;font style=&quot;font-size: 15px;&quot;&gt;Редактировать&lt;/font&gt;" style="rounded=1;whiteSpace=wrap;html=1;" vertex="1" parent="1">
          <mxGeometry x="495.5" y="790" width="157" height="30" as="geometry" />
        </mxCell>
        <mxCell id="iTd5vwI9E0nDES0AS1c3-53" value="&lt;font style=&quot;font-size: 15px;&quot;&gt;Редактировать&lt;/font&gt;" style="rounded=1;whiteSpace=wrap;html=1;" vertex="1" parent="1">
          <mxGeometry x="495.5" y="850" width="157" height="30" as="geometry" />
        </mxCell>
        <mxCell id="iTd5vwI9E0nDES0AS1c3-54" value="&lt;font style=&quot;font-size: 15px;&quot;&gt;Id Преподавателя&lt;/font&gt;" style="rounded=1;whiteSpace=wrap;html=1;" vertex="1" parent="1">
          <mxGeometry x="280" y="420" width="270" height="30" as="geometry" />
        </mxCell>
        <mxCell id="iTd5vwI9E0nDES0AS1c3-64" style="edgeStyle=orthogonalEdgeStyle;rounded=0;orthogonalLoop=1;jettySize=auto;html=1;exitX=0.5;exitY=1;exitDx=0;exitDy=0;entryX=0.5;entryY=0;entryDx=0;entryDy=0;strokeColor=#0B4D6A;" edge="1" parent="1" source="iTd5vwI9E0nDES0AS1c3-55" target="iTd5vwI9E0nDES0AS1c3-57">
          <mxGeometry relative="1" as="geometry" />
        </mxCell>
        <mxCell id="iTd5vwI9E0nDES0AS1c3-55" value="&lt;font style=&quot;font-size: 14px;&quot;&gt;Добавить преподавателя&lt;/font&gt;" style="rounded=1;whiteSpace=wrap;html=1;labelBackgroundColor=none;fillColor=#09555B;strokeColor=#BAC8D3;fontColor=#EEEEEE;" vertex="1" parent="1">
          <mxGeometry x="1460" y="660" width="160" height="40" as="geometry" />
        </mxCell>
        <mxCell id="iTd5vwI9E0nDES0AS1c3-57" value="" style="rounded=1;whiteSpace=wrap;html=1;strokeColor=#BAC8D3;fontColor=#EEEEEE;fillColor=#09555B;" vertex="1" parent="1">
          <mxGeometry x="1460" y="730" width="370" height="350" as="geometry" />
        </mxCell>
        <mxCell id="iTd5vwI9E0nDES0AS1c3-58" value="&lt;span style=&quot;font-size: 15px;&quot;&gt;Имя&lt;span style=&quot;white-space: pre;&quot;&gt;&#x9;&lt;/span&gt;&lt;/span&gt;" style="rounded=1;whiteSpace=wrap;html=1;" vertex="1" parent="1">
          <mxGeometry x="1510" y="800" width="270" height="30" as="geometry" />
        </mxCell>
        <mxCell id="iTd5vwI9E0nDES0AS1c3-59" value="&lt;font style=&quot;font-size: 15px;&quot;&gt;Фамилия&lt;/font&gt;" style="rounded=1;whiteSpace=wrap;html=1;" vertex="1" parent="1">
          <mxGeometry x="1510" y="850" width="270" height="30" as="geometry" />
        </mxCell>
        <mxCell id="iTd5vwI9E0nDES0AS1c3-61" value="&lt;font style=&quot;font-size: 15px;&quot;&gt;Подтвердить&lt;/font&gt;" style="rounded=1;whiteSpace=wrap;html=1;" vertex="1" parent="1">
          <mxGeometry x="1555" y="1020" width="180" height="30" as="geometry" />
        </mxCell>
        <mxCell id="iTd5vwI9E0nDES0AS1c3-62" value="&lt;font style=&quot;font-size: 18px;&quot;&gt;Добавление преподавателя&lt;/font&gt;" style="text;html=1;strokeColor=none;fillColor=none;align=center;verticalAlign=middle;whiteSpace=wrap;rounded=0;fontColor=#EEEEEE;" vertex="1" parent="1">
          <mxGeometry x="1547" y="750" width="196" height="30" as="geometry" />
        </mxCell>
        <mxCell id="iTd5vwI9E0nDES0AS1c3-63" value="&lt;font style=&quot;font-size: 15px;&quot;&gt;Номер телефона&lt;/font&gt;" style="rounded=1;whiteSpace=wrap;html=1;" vertex="1" parent="1">
          <mxGeometry x="1510" y="900" width="270" height="30" as="geometry" />
        </mxCell>
        <mxCell id="iTd5vwI9E0nDES0AS1c3-65" value="&lt;font style=&quot;font-size: 15px;&quot;&gt;Кол-во посетивших&lt;/font&gt;" style="rounded=1;whiteSpace=wrap;html=1;" vertex="1" parent="1">
          <mxGeometry x="1070" y="890" width="270" height="30" as="geometry" />
        </mxCell>
        <mxCell id="iTd5vwI9E0nDES0AS1c3-68" style="edgeStyle=orthogonalEdgeStyle;rounded=0;orthogonalLoop=1;jettySize=auto;html=1;exitX=0.5;exitY=1;exitDx=0;exitDy=0;entryX=0;entryY=0.5;entryDx=0;entryDy=0;strokeColor=#0B4D6A;" edge="1" parent="1" source="iTd5vwI9E0nDES0AS1c3-66" target="iTd5vwI9E0nDES0AS1c3-67">
          <mxGeometry relative="1" as="geometry" />
        </mxCell>
        <mxCell id="iTd5vwI9E0nDES0AS1c3-66" value="&lt;font style=&quot;font-size: 14px;&quot;&gt;Показать преподавателей&lt;/font&gt;" style="rounded=1;whiteSpace=wrap;html=1;labelBackgroundColor=none;fillColor=#09555B;strokeColor=#BAC8D3;fontColor=#EEEEEE;" vertex="1" parent="1">
          <mxGeometry x="1289.5" y="50" width="160" height="40" as="geometry" />
        </mxCell>
        <mxCell id="iTd5vwI9E0nDES0AS1c3-67" value="" style="rounded=1;whiteSpace=wrap;html=1;strokeColor=#BAC8D3;fontColor=#EEEEEE;fillColor=#09555B;" vertex="1" parent="1">
          <mxGeometry x="1349.5" y="120" width="651" height="520" as="geometry" />
        </mxCell>
        <mxCell id="iTd5vwI9E0nDES0AS1c3-69" value="&lt;font style=&quot;font-size: 18px;&quot;&gt;Список преподавателей&lt;br&gt;&lt;/font&gt;" style="text;html=1;strokeColor=none;fillColor=none;align=center;verticalAlign=middle;whiteSpace=wrap;rounded=0;fontColor=#EEEEEE;" vertex="1" parent="1">
          <mxGeometry x="1569.5" y="140" width="196" height="30" as="geometry" />
        </mxCell>
        <mxCell id="iTd5vwI9E0nDES0AS1c3-70" value="&lt;span style=&quot;font-size: 15px;&quot;&gt;Id&lt;/span&gt;" style="rounded=1;whiteSpace=wrap;html=1;" vertex="1" parent="1">
          <mxGeometry x="1419.5" y="200" width="110" height="30" as="geometry" />
        </mxCell>
        <mxCell id="iTd5vwI9E0nDES0AS1c3-71" value="&lt;span style=&quot;font-size: 15px;&quot;&gt;Имя Фамилия&lt;/span&gt;" style="rounded=1;whiteSpace=wrap;html=1;" vertex="1" parent="1">
          <mxGeometry x="1679.5" y="200" width="270" height="30" as="geometry" />
        </mxCell>
        <mxCell id="iTd5vwI9E0nDES0AS1c3-76" value="&lt;span style=&quot;font-size: 15px;&quot;&gt;Id&lt;/span&gt;" style="rounded=1;whiteSpace=wrap;html=1;" vertex="1" parent="1">
          <mxGeometry x="1419.5" y="250" width="110" height="30" as="geometry" />
        </mxCell>
        <mxCell id="iTd5vwI9E0nDES0AS1c3-77" value="&lt;span style=&quot;font-size: 15px;&quot;&gt;Имя Фамилия&lt;/span&gt;" style="rounded=1;whiteSpace=wrap;html=1;" vertex="1" parent="1">
          <mxGeometry x="1679.5" y="250" width="270" height="30" as="geometry" />
        </mxCell>
        <mxCell id="iTd5vwI9E0nDES0AS1c3-78" value="&lt;span style=&quot;font-size: 15px;&quot;&gt;Id&lt;/span&gt;" style="rounded=1;whiteSpace=wrap;html=1;" vertex="1" parent="1">
          <mxGeometry x="1419.5" y="300" width="110" height="30" as="geometry" />
        </mxCell>
        <mxCell id="iTd5vwI9E0nDES0AS1c3-79" value="&lt;span style=&quot;font-size: 15px;&quot;&gt;Имя Фамилия&lt;/span&gt;" style="rounded=1;whiteSpace=wrap;html=1;" vertex="1" parent="1">
          <mxGeometry x="1679.5" y="300" width="270" height="30" as="geometry" />
        </mxCell>
        <mxCell id="iTd5vwI9E0nDES0AS1c3-80" value="&lt;span style=&quot;font-size: 15px;&quot;&gt;Id&lt;/span&gt;" style="rounded=1;whiteSpace=wrap;html=1;" vertex="1" parent="1">
          <mxGeometry x="1419.5" y="350" width="110" height="30" as="geometry" />
        </mxCell>
        <mxCell id="iTd5vwI9E0nDES0AS1c3-81" value="&lt;span style=&quot;font-size: 15px;&quot;&gt;Имя Фамилия&lt;/span&gt;" style="rounded=1;whiteSpace=wrap;html=1;" vertex="1" parent="1">
          <mxGeometry x="1679.5" y="350" width="270" height="30" as="geometry" />
        </mxCell>
        <mxCell id="iTd5vwI9E0nDES0AS1c3-82" value="&lt;font style=&quot;font-size: 15px;&quot;&gt;Закрыть&lt;/font&gt;" style="rounded=1;whiteSpace=wrap;html=1;" vertex="1" parent="1">
          <mxGeometry x="1575" y="580" width="200" height="30" as="geometry" />
        </mxCell>
        <mxCell id="iTd5vwI9E0nDES0AS1c3-83" value="&lt;font style=&quot;font-size: 15px;&quot;&gt;Закрыть&lt;/font&gt;" style="rounded=1;whiteSpace=wrap;html=1;" vertex="1" parent="1">
          <mxGeometry x="452.5" y="1080" width="200" height="30" as="geometry" />
        </mxCell>
        <mxCell id="iTd5vwI9E0nDES0AS1c3-86" value="&lt;font style=&quot;font-size: 15px;&quot;&gt;Удалить&lt;/font&gt;" style="rounded=1;whiteSpace=wrap;html=1;" vertex="1" parent="1">
          <mxGeometry x="710" y="680" width="120" height="30" as="geometry" />
        </mxCell>
      </root>
    </mxGraphModel>
  </diagram>
</mxfile>
